# xmcd
# 
# Track frame offsets:
#     150
#     31247
#     50605
#     82982
#     115155
#     142542
#     176175
#     192910
#     213360
#     236990
# 
# Disc length: 3260
# 
# Revision: 1
# Processed by: cddbd v1.5.2PL0 Copyright (c) Steve Scherf et al.
# Submitted via: BonkEnc v1.0.8
# 
DISCID=840cba0a
DTITLE=Paul Bley - Sweet Time
DYEAR=1993
DGENRE=Contemporary Jazz
TTITLE0=Never Again
TTITLE1=Contrary
TTITLE2=Turnham Bay
TTITLE3=Sweet Time
TTITLE4=Lost Love
TTITLE5=Turquoise
TTITLE6=Pointillist
TTITLE7=Started
TTITLE8=As Beautiful As The Moon
TTITLE9=Finale
EXTD=YEAR: 1994
EXTT0=
EXTT1=
EXTT2=
EXTT3=
EXTT4=
EXTT5=
EXTT6=
EXTT7=
EXTT8=
EXTT9=
PLAYORDER=
